<?xml version="1.0" encoding="UTF-8"?>
<!DOCTYPE svg PUBLIC "-//W3C//DTD SVG 1.1//EN" "http://www.w3.org/Graphics/SVG/1.1/DTD/svg11.dtd">
<!-- Creator: CorelDRAW 2020 (64-Bit Not for commercial use) -->
<svg xmlns="http://www.w3.org/2000/svg" xml:space="preserve" width="105.543mm" height="44.5568mm" version="1.1" style="shape-rendering:geometricPrecision; text-rendering:geometricPrecision; image-rendering:optimizeQuality; fill-rule:evenodd; clip-rule:evenodd"
viewBox="0 0 1993.57 841.63"
 xmlns:xlink="http://www.w3.org/1999/xlink"
 xmlns:xodm="http://www.corel.com/coreldraw/odm/2003">
 <defs>
  <style type="text/css">
   <![CDATA[
    .str3 {stroke:#FEFEFE;stroke-width:9.44;stroke-miterlimit:22.9256}
    .str0 {stroke:#FEFEFE;stroke-width:4.72;stroke-miterlimit:22.9256}
    .str1 {stroke:#FEFEFE;stroke-width:3.78;stroke-miterlimit:22.9256}
    .str2 {stroke:#373435;stroke-width:3.78;stroke-miterlimit:22.9256}
    .fil0 {fill:none}
    .fil2 {fill:none;fill-rule:nonzero}
    .fil3 {fill:#ED3237}
    .fil4 {fill:#6B809B}
    .fil1 {fill:#FEFEFE;fill-rule:nonzero}
    .fil5 {fill:url(#id0)}
   ]]>
  </style>
  <linearGradient id="id0" gradientUnits="userSpaceOnUse" x1="29.87" y1="420.89" x2="1817.42" y2="418.29">
   <stop offset="0" style="stop-opacity:1; stop-color:#ED3237"/>
   <stop offset="0.341176" style="stop-opacity:1; stop-color:#F6989B"/>
   <stop offset="1" style="stop-opacity:1; stop-color:white"/>
  </linearGradient>
 </defs>
 <g id="Layer_x0020_1">
  <metadata id="CorelCorpID_0Corel-Layer"/>
  <rect class="fil0" x="-0" y="-0" width="1993.57" height="841.63"/>
  <polygon class="fil1" points="682.16,259.8 682.16,177.28 766.6,177.28 766.6,191.36 701.35,191.36 701.35,209.75 739.41,209.75 739.41,223.82 701.35,223.82 701.35,244.29 767.4,244.29 767.4,259.8 "/>
  <polygon id="1" class="fil1" points="802.87,259.8 802.87,177.28 822.07,177.28 822.07,244.29 883.96,244.29 883.96,259.8 "/>
  <polygon id="2" class="fil1" points="912.13,259.8 912.13,177.28 996.57,177.28 996.57,191.36 931.32,191.36 931.32,209.75 969.39,209.75 969.39,223.82 931.32,223.82 931.32,244.29 997.37,244.29 997.37,259.8 "/>
  <path id="3" class="fil1" d="M1102.1 191.99l-51.82 0 0 52.3 51.82 0 0 -17.75 19.19 4 0 9.76c0,7.54 -1.41,12.69 -4.27,15.41 -2.83,2.74 -8.21,4.1 -16.18,4.1l-49.31 0c-8.02,0 -13.43,-1.36 -16.23,-4.1 -2.8,-2.72 -4.21,-7.86 -4.21,-15.41l0 -43.53c0,-7.46 1.41,-12.61 4.21,-15.35 2.8,-2.74 8.21,-4.13 16.23,-4.13l49.31 0c7.97,0 13.35,1.39 16.18,4.13 2.85,2.75 4.27,7.89 4.27,15.35l0 7.84 -19.19 3.07 0 -15.67z"/>
  <polygon id="4" class="fil1" points="1199.3,191.99 1199.3,259.8 1180.11,259.8 1180.11,191.99 1142.21,191.99 1142.21,177.28 1237.37,177.28 1237.37,191.99 "/>
  <path id="5" class="fil1" d="M1322.9 191.51l-43.15 0 0 23.03 43.15 0c3.33,0 5.6,-0.48 6.82,-1.44 1.23,-0.99 1.84,-2.69 1.84,-5.14l0 -9.94c0,-2.4 -0.61,-4.08 -1.84,-5.06 -1.23,-0.96 -3.49,-1.44 -6.82,-1.44zm-62.03 68.29l0 -82.52 70.53 0c6.58,0 11.36,1.25 14.29,3.79 2.96,2.5 4.42,6.56 4.42,12.18l0 19.4c0,5.57 -1.47,9.62 -4.42,12.15 -2.93,2.53 -7.7,3.81 -14.29,3.81l-10.77 0 38.14 31.19 -27.56 0 -33.26 -31.19 -18.21 0 0 31.19 -18.87 0z"/>
  <polygon id="6" class="fil1" points="1389.11,259.8 1389.11,177.28 1408.3,177.28 1408.3,259.8 "/>
  <path id="7" class="fil1" d="M1519.74 191.99l-51.82 0 0 52.3 51.82 0 0 -17.75 19.19 4 0 9.76c0,7.54 -1.41,12.69 -4.27,15.41 -2.83,2.74 -8.21,4.1 -16.18,4.1l-49.31 0c-8.02,0 -13.43,-1.36 -16.23,-4.1 -2.8,-2.72 -4.21,-7.86 -4.21,-15.41l0 -43.53c0,-7.46 1.41,-12.61 4.21,-15.35 2.8,-2.74 8.21,-4.13 16.23,-4.13l49.31 0c7.97,0 13.35,1.39 16.18,4.13 2.85,2.75 4.27,7.89 4.27,15.35l0 7.84 -19.19 3.07 0 -15.67z"/>
  <polygon id="8" class="fil1" points="1578.57,259.8 1578.57,177.28 1597.76,177.28 1597.76,259.8 "/>
  <polygon id="9" class="fil1" points="1678.34,191.99 1678.34,259.8 1659.14,259.8 1659.14,191.99 1621.24,191.99 1621.24,177.28 1716.4,177.28 1716.4,191.99 "/>
  <polygon id="10" class="fil1" points="1762.94,259.8 1762.94,222.89 1720.08,177.28 1745.69,177.28 1774.02,208.97 1802.44,177.28 1824.99,177.28 1782.29,222.41 1782.29,259.8 "/>
  <polygon id="11" class="fil2 str0" points="682.16,259.8 682.16,177.28 766.6,177.28 766.6,191.36 701.35,191.36 701.35,209.75 739.41,209.75 739.41,223.82 701.35,223.82 701.35,244.29 767.4,244.29 767.4,259.8 "/>
  <polygon id="12" class="fil2 str0" points="802.87,259.8 802.87,177.28 822.07,177.28 822.07,244.29 883.96,244.29 883.96,259.8 "/>
  <polygon id="13" class="fil2 str0" points="912.13,259.8 912.13,177.28 996.57,177.28 996.57,191.36 931.32,191.36 931.32,209.75 969.39,209.75 969.39,223.82 931.32,223.82 931.32,244.29 997.37,244.29 997.37,259.8 "/>
  <path id="14" class="fil2 str0" d="M1102.1 191.99l-51.82 0 0 52.3 51.82 0 0 -17.75 19.19 4 0 9.76c0,7.54 -1.41,12.69 -4.27,15.41 -2.83,2.74 -8.21,4.1 -16.18,4.1l-49.31 0c-8.02,0 -13.43,-1.36 -16.23,-4.1 -2.8,-2.72 -4.21,-7.86 -4.21,-15.41l0 -43.53c0,-7.46 1.41,-12.61 4.21,-15.35 2.8,-2.74 8.21,-4.13 16.23,-4.13l49.31 0c7.97,0 13.35,1.39 16.18,4.13 2.85,2.75 4.27,7.89 4.27,15.35l0 7.84 -19.19 3.07 0 -15.67z"/>
  <polygon id="15" class="fil2 str0" points="1199.3,191.99 1199.3,259.8 1180.11,259.8 1180.11,191.99 1142.21,191.99 1142.21,177.28 1237.37,177.28 1237.37,191.99 "/>
  <path id="16" class="fil2 str0" d="M1322.9 191.51l-43.15 0 0 23.03 43.15 0c3.33,0 5.6,-0.48 6.82,-1.44 1.23,-0.99 1.84,-2.69 1.84,-5.14l0 -9.94c0,-2.4 -0.61,-4.08 -1.84,-5.06 -1.23,-0.96 -3.49,-1.44 -6.82,-1.44zm-62.03 68.29l0 -82.52 70.53 0c6.58,0 11.36,1.25 14.29,3.79 2.96,2.5 4.42,6.56 4.42,12.18l0 19.4c0,5.57 -1.47,9.62 -4.42,12.15 -2.93,2.53 -7.7,3.81 -14.29,3.81l-10.77 0 38.14 31.19 -27.56 0 -33.26 -31.19 -18.21 0 0 31.19 -18.87 0z"/>
  <polygon id="17" class="fil2 str0" points="1389.11,259.8 1389.11,177.28 1408.3,177.28 1408.3,259.8 "/>
  <path id="18" class="fil2 str0" d="M1519.74 191.99l-51.82 0 0 52.3 51.82 0 0 -17.75 19.19 4 0 9.76c0,7.54 -1.41,12.69 -4.27,15.41 -2.83,2.74 -8.21,4.1 -16.18,4.1l-49.31 0c-8.02,0 -13.43,-1.36 -16.23,-4.1 -2.8,-2.72 -4.21,-7.86 -4.21,-15.41l0 -43.53c0,-7.46 1.41,-12.61 4.21,-15.35 2.8,-2.74 8.21,-4.13 16.23,-4.13l49.31 0c7.97,0 13.35,1.39 16.18,4.13 2.85,2.75 4.27,7.89 4.27,15.35l0 7.84 -19.19 3.07 0 -15.67z"/>
  <polygon id="19" class="fil2 str0" points="1578.57,259.8 1578.57,177.28 1597.76,177.28 1597.76,259.8 "/>
  <polygon id="20" class="fil2 str0" points="1678.34,191.99 1678.34,259.8 1659.14,259.8 1659.14,191.99 1621.24,191.99 1621.24,177.28 1716.4,177.28 1716.4,191.99 "/>
  <polygon id="21" class="fil2 str0" points="1762.94,259.8 1762.94,222.89 1720.08,177.28 1745.69,177.28 1774.02,208.97 1802.44,177.28 1824.99,177.28 1782.29,222.41 1782.29,259.8 "/>
  <path class="fil1" d="M776.31 442.92l0 -61.89 11.63 0 29.19 37.42 28.49 -37.42 11.54 0 0 61.89 -13.31 0 0 -38.24c0,-0.74 0.04,-1.68 0.14,-2.8 0.1,-1.14 0.24,-2.4 0.38,-3.82 -0.78,1.6 -1.46,2.92 -2.04,3.96 -0.6,1.04 -1.12,1.88 -1.58,2.54l-23.27 30.92 -2.86 0 -23.33 -31.02c-0.86,-1.18 -1.6,-2.28 -2.2,-3.32 -0.6,-1.04 -1.1,-2.04 -1.5,-3.02 0.12,1.3 0.22,2.46 0.28,3.52 0.06,1.06 0.08,2.06 0.08,3.04l0 38.24 -11.63 0z"/>
  <path id="1" class="fil1" d="M903.3 418.21l27.15 0 -13.37 -25.19 -13.77 25.19zm-27.71 24.71l35.04 -61.89 13.89 0 35.5 61.89 -16.17 0 -7.44 -13.55 -39.26 0 -7.22 13.55 -14.35 0z"/>
  <path id="2" class="fil1" d="M979.83 442.92l0 -61.89 9.84 0 43.58 36.48c1.48,1.2 2.78,2.34 3.92,3.42 1.14,1.08 2.16,2.18 3.1,3.32 -0.22,-3.48 -0.38,-5.94 -0.46,-7.38 -0.08,-1.46 -0.12,-2.56 -0.12,-3.34l0 -32.5 12.95 0 0 61.89 -9.84 0 -45.46 -38.24c-1.08,-0.98 -2.04,-1.84 -2.86,-2.64 -0.82,-0.78 -1.58,-1.58 -2.28,-2.4 0.18,1.92 0.34,3.72 0.44,5.42 0.1,1.7 0.14,3.18 0.14,4.42l0 33.44 -12.95 0z"/>
  <path id="3" class="fil1" d="M1100.03 418.21l27.15 0 -13.37 -25.19 -13.77 25.19zm-27.71 24.71l35.04 -61.89 13.89 0 35.5 61.89 -16.17 0 -7.44 -13.55 -39.26 0 -7.22 13.55 -14.35 0z"/>
  <path id="4" class="fil1" d="M1232.63 392.06l-44.98 0 0 39.22 44.98 0 0 -13.79 -23.51 0 0 -10.56 37.54 0 0 21.35c0,5.66 -1.06,9.52 -3.18,11.55 -2.1,2.06 -6.18,3.08 -12.19,3.08l-42.7 0c-6.02,0 -10.08,-1.02 -12.17,-3.08 -2.1,-2.04 -3.16,-5.9 -3.16,-11.55l0 -32.62c0,-5.62 1.06,-9.46 3.16,-11.54 2.1,-2.06 6.16,-3.1 12.17,-3.1l42.7 0c5.94,0 10,1.02 12.15,3.04 2.14,2.04 3.22,5.7 3.22,10.99l0 1.42 -14.03 2.54 0 -6.96z"/>
  <polygon id="5" class="fil1" points="1277.13,442.92 1277.13,381.03 1340.46,381.03 1340.46,391.58 1291.53,391.58 1291.53,405.37 1320.07,405.37 1320.07,415.93 1291.53,415.93 1291.53,431.28 1341.06,431.28 1341.06,442.92 "/>
  <path id="6" class="fil1" d="M1367.55 442.92l0 -61.89 11.63 0 29.19 37.42 28.49 -37.42 11.54 0 0 61.89 -13.31 0 0 -38.24c0,-0.74 0.04,-1.68 0.14,-2.8 0.1,-1.14 0.24,-2.4 0.38,-3.82 -0.78,1.6 -1.46,2.92 -2.04,3.96 -0.6,1.04 -1.12,1.88 -1.58,2.54l-23.27 30.92 -2.86 0 -23.33 -31.02c-0.86,-1.18 -1.6,-2.28 -2.2,-3.32 -0.6,-1.04 -1.1,-2.04 -1.5,-3.02 0.12,1.3 0.22,2.46 0.28,3.52 0.06,1.06 0.08,2.06 0.08,3.04l0 38.24 -11.63 0z"/>
  <polygon id="7" class="fil1" points="1478.72,442.92 1478.72,381.03 1542.05,381.03 1542.05,391.58 1493.11,391.58 1493.11,405.37 1521.66,405.37 1521.66,415.93 1493.11,415.93 1493.11,431.28 1542.65,431.28 1542.65,442.92 "/>
  <path id="8" class="fil1" d="M1569.14 442.92l0 -61.89 9.84 0 43.58 36.48c1.48,1.2 2.78,2.34 3.92,3.42 1.14,1.08 2.16,2.18 3.1,3.32 -0.22,-3.48 -0.38,-5.94 -0.46,-7.38 -0.08,-1.46 -0.12,-2.56 -0.12,-3.34l0 -32.5 12.95 0 0 61.89 -9.84 0 -45.46 -38.24c-1.08,-0.98 -2.04,-1.84 -2.86,-2.64 -0.82,-0.78 -1.58,-1.58 -2.28,-2.4 0.18,1.92 0.34,3.72 0.44,5.42 0.1,1.7 0.14,3.18 0.14,4.42l0 33.44 -12.95 0z"/>
  <polygon id="9" class="fil1" points="1702.29,392.06 1702.29,442.92 1687.9,442.92 1687.9,392.06 1659.47,392.06 1659.47,381.03 1730.84,381.03 1730.84,392.06 "/>
  <path id="10" class="fil2 str0" d="M776.31 442.92l0 -61.89 11.63 0 29.19 37.42 28.49 -37.42 11.54 0 0 61.89 -13.31 0 0 -38.24c0,-0.74 0.04,-1.68 0.14,-2.8 0.1,-1.14 0.24,-2.4 0.38,-3.82 -0.78,1.6 -1.46,2.92 -2.04,3.96 -0.6,1.04 -1.12,1.88 -1.58,2.54l-23.27 30.92 -2.86 0 -23.33 -31.02c-0.86,-1.18 -1.6,-2.28 -2.2,-3.32 -0.6,-1.04 -1.1,-2.04 -1.5,-3.02 0.12,1.3 0.22,2.46 0.28,3.52 0.06,1.06 0.08,2.06 0.08,3.04l0 38.24 -11.63 0z"/>
  <path id="11" class="fil2 str0" d="M903.3 418.21l27.15 0 -13.37 -25.19 -13.77 25.19zm-27.71 24.71l35.04 -61.89 13.89 0 35.5 61.89 -16.17 0 -7.44 -13.55 -39.26 0 -7.22 13.55 -14.35 0z"/>
  <path id="12" class="fil2 str0" d="M979.83 442.92l0 -61.89 9.84 0 43.58 36.48c1.48,1.2 2.78,2.34 3.92,3.42 1.14,1.08 2.16,2.18 3.1,3.32 -0.22,-3.48 -0.38,-5.94 -0.46,-7.38 -0.08,-1.46 -0.12,-2.56 -0.12,-3.34l0 -32.5 12.95 0 0 61.89 -9.84 0 -45.46 -38.24c-1.08,-0.98 -2.04,-1.84 -2.86,-2.64 -0.82,-0.78 -1.58,-1.58 -2.28,-2.4 0.18,1.92 0.34,3.72 0.44,5.42 0.1,1.7 0.14,3.18 0.14,4.42l0 33.44 -12.95 0z"/>
  <path id="13" class="fil2 str0" d="M1100.03 418.21l27.15 0 -13.37 -25.19 -13.77 25.19zm-27.71 24.71l35.04 -61.89 13.89 0 35.5 61.89 -16.17 0 -7.44 -13.55 -39.26 0 -7.22 13.55 -14.35 0z"/>
  <path id="14" class="fil2 str0" d="M1232.63 392.06l-44.98 0 0 39.22 44.98 0 0 -13.79 -23.51 0 0 -10.56 37.54 0 0 21.35c0,5.66 -1.06,9.52 -3.18,11.55 -2.1,2.06 -6.18,3.08 -12.19,3.08l-42.7 0c-6.02,0 -10.08,-1.02 -12.17,-3.08 -2.1,-2.04 -3.16,-5.9 -3.16,-11.55l0 -32.62c0,-5.62 1.06,-9.46 3.16,-11.54 2.1,-2.06 6.16,-3.1 12.17,-3.1l42.7 0c5.94,0 10,1.02 12.15,3.04 2.14,2.04 3.22,5.7 3.22,10.99l0 1.42 -14.03 2.54 0 -6.96z"/>
  <polygon id="15" class="fil2 str0" points="1277.13,442.92 1277.13,381.03 1340.46,381.03 1340.46,391.58 1291.53,391.58 1291.53,405.37 1320.07,405.37 1320.07,415.93 1291.53,415.93 1291.53,431.28 1341.06,431.28 1341.06,442.92 "/>
  <path id="16" class="fil2 str0" d="M1367.55 442.92l0 -61.89 11.63 0 29.19 37.42 28.49 -37.42 11.54 0 0 61.89 -13.31 0 0 -38.24c0,-0.74 0.04,-1.68 0.14,-2.8 0.1,-1.14 0.24,-2.4 0.38,-3.82 -0.78,1.6 -1.46,2.92 -2.04,3.96 -0.6,1.04 -1.12,1.88 -1.58,2.54l-23.27 30.92 -2.86 0 -23.33 -31.02c-0.86,-1.18 -1.6,-2.28 -2.2,-3.32 -0.6,-1.04 -1.1,-2.04 -1.5,-3.02 0.12,1.3 0.22,2.46 0.28,3.52 0.06,1.06 0.08,2.06 0.08,3.04l0 38.24 -11.63 0z"/>
  <polygon id="17" class="fil2 str0" points="1478.72,442.92 1478.72,381.03 1542.05,381.03 1542.05,391.58 1493.11,391.58 1493.11,405.37 1521.66,405.37 1521.66,415.93 1493.11,415.93 1493.11,431.28 1542.65,431.28 1542.65,442.92 "/>
  <path id="18" class="fil2 str0" d="M1569.14 442.92l0 -61.89 9.84 0 43.58 36.48c1.48,1.2 2.78,2.34 3.92,3.42 1.14,1.08 2.16,2.18 3.1,3.32 -0.22,-3.48 -0.38,-5.94 -0.46,-7.38 -0.08,-1.46 -0.12,-2.56 -0.12,-3.34l0 -32.5 12.95 0 0 61.89 -9.84 0 -45.46 -38.24c-1.08,-0.98 -2.04,-1.84 -2.86,-2.64 -0.82,-0.78 -1.58,-1.58 -2.28,-2.4 0.18,1.92 0.34,3.72 0.44,5.42 0.1,1.7 0.14,3.18 0.14,4.42l0 33.44 -12.95 0z"/>
  <polygon id="19" class="fil2 str0" points="1702.29,392.06 1702.29,442.92 1687.9,442.92 1687.9,392.06 1659.47,392.06 1659.47,381.03 1730.84,381.03 1730.84,392.06 "/>
  <polygon class="fil1" points="575.58,568.42 575.58,513.41 588.37,513.41 588.37,568.42 "/>
  <path id="1" class="fil1" d="M616.39 568.42l0 -55.01 8.74 0 38.74 32.43c1.31,1.07 2.47,2.08 3.48,3.04 1.01,0.96 1.92,1.94 2.76,2.95 -0.2,-3.09 -0.34,-5.28 -0.41,-6.56 -0.07,-1.3 -0.11,-2.27 -0.11,-2.97l0 -28.89 11.51 0 0 55.01 -8.74 0 -40.41 -33.99c-0.96,-0.87 -1.81,-1.64 -2.54,-2.35 -0.73,-0.69 -1.4,-1.4 -2.03,-2.13 0.16,1.71 0.3,3.31 0.39,4.82 0.09,1.51 0.12,2.82 0.12,3.93l0 29.73 -11.51 0z"/>
  <polygon id="2" class="fil1" points="709.17,568.42 709.17,513.41 764.82,513.41 764.82,523 721.96,523 721.96,537.5 745.09,537.5 745.09,547.52 721.96,547.52 721.96,568.42 "/>
  <path id="3" class="fil1" d="M779.51 526.4c0,-4.99 0.94,-8.41 2.81,-10.24 1.87,-1.83 5.47,-2.75 10.82,-2.75l40.5 0c5.37,0 8.99,0.92 10.86,2.75 1.89,1.83 2.83,5.24 2.83,10.24l0 29.02c0,5.03 -0.94,8.46 -2.83,10.27 -1.86,1.83 -5.49,2.74 -10.86,2.74l-40.5 0c-5.35,0 -8.96,-0.91 -10.82,-2.74 -1.87,-1.81 -2.81,-5.24 -2.81,-10.27l0 -29.02zm12.79 31.68l42.22 0 0 -34.86 -42.22 0 0 34.86z"/>
  <path id="4" class="fil1" d="M915.64 522.89l-28.77 0 0 15.35 28.77 0c2.22,0 3.73,-0.32 4.55,-0.96 0.82,-0.66 1.23,-1.79 1.23,-3.43l0 -6.63c0,-1.6 -0.41,-2.72 -1.23,-3.38 -0.82,-0.64 -2.33,-0.96 -4.55,-0.96zm-41.35 45.53l0 -55.01 47.02 0c4.39,0 7.57,0.83 9.53,2.52 1.97,1.67 2.95,4.37 2.95,8.12l0 12.94c0,3.72 -0.98,6.41 -2.95,8.1 -1.95,1.69 -5.14,2.54 -9.53,2.54l-7.18 0 25.43 20.79 -18.37 0 -22.18 -20.79 -12.14 0 0 20.79 -12.58 0z"/>
  <path id="5" class="fil1" d="M959.68 568.42l0 -55.01 10.34 0 25.94 33.26 25.32 -33.26 10.25 0 0 55.01 -11.83 0 0 -33.99c0,-0.66 0.04,-1.49 0.12,-2.49 0.09,-1.01 0.21,-2.13 0.34,-3.39 -0.69,1.42 -1.3,2.59 -1.81,3.52 -0.53,0.92 -1,1.67 -1.4,2.26l-20.68 27.49 -2.54 0 -20.74 -27.58c-0.76,-1.05 -1.42,-2.02 -1.95,-2.95 -0.53,-0.93 -0.98,-1.81 -1.33,-2.68 0.11,1.16 0.19,2.19 0.25,3.13 0.05,0.94 0.07,1.83 0.07,2.7l0 33.99 -10.34 0z"/>
  <path id="6" class="fil1" d="M1072.57 546.46l24.13 0 -11.89 -22.39 -12.24 22.39zm-24.63 21.96l31.15 -55.01 12.35 0 31.56 55.01 -14.37 0 -6.61 -12.05 -34.9 0 -6.41 12.05 -12.76 0z"/>
  <polygon id="7" class="fil1" points="1159.05,523.21 1159.05,568.42 1146.26,568.42 1146.26,523.21 1120.99,523.21 1120.99,513.41 1184.42,513.41 1184.42,523.21 "/>
  <polygon id="8" class="fil1" points="1200.1,568.42 1200.1,513.41 1212.89,513.41 1212.89,568.42 "/>
  <path id="9" class="fil1" d="M1239.85 526.4c0,-4.99 0.94,-8.41 2.81,-10.24 1.87,-1.83 5.47,-2.75 10.82,-2.75l40.5 0c5.37,0 8.99,0.92 10.86,2.75 1.89,1.83 2.83,5.24 2.83,10.24l0 29.02c0,5.03 -0.94,8.46 -2.83,10.27 -1.86,1.83 -5.49,2.74 -10.86,2.74l-40.5 0c-5.35,0 -8.96,-0.91 -10.82,-2.74 -1.87,-1.81 -2.81,-5.24 -2.81,-10.27l0 -29.02zm12.79 31.68l42.22 0 0 -34.86 -42.22 0 0 34.86z"/>
  <path id="10" class="fil1" d="M1334.52 568.42l0 -55.01 8.74 0 38.74 32.43c1.31,1.07 2.47,2.08 3.48,3.04 1.01,0.96 1.92,1.94 2.76,2.95 -0.2,-3.09 -0.34,-5.28 -0.41,-6.56 -0.07,-1.3 -0.11,-2.27 -0.11,-2.97l0 -28.89 11.51 0 0 55.01 -8.74 0 -40.41 -33.99c-0.96,-0.87 -1.81,-1.64 -2.54,-2.35 -0.73,-0.69 -1.4,-1.4 -2.03,-2.13 0.16,1.71 0.3,3.31 0.39,4.82 0.09,1.51 0.12,2.82 0.12,3.93l0 29.73 -11.51 0z"/>
  <path id="11" class="fil1" d="M1516.23 523l-36.04 0 0 11.83 34.31 0c5.4,0 9.03,0.92 10.93,2.75 1.9,1.85 2.84,5.26 2.84,10.27l0 7.57c0,4.98 -0.94,8.41 -2.84,10.24 -1.9,1.83 -5.53,2.75 -10.93,2.75l-33.99 0c-5.38,0 -9.03,-0.92 -10.91,-2.75 -1.9,-1.83 -2.84,-5.26 -2.84,-10.24l0 -1.51 11.3 -2.35 0 6.5 38.91 0 0 -12.58 -34.33 0c-5.35,0 -8.96,-0.93 -10.84,-2.76 -1.87,-1.83 -2.81,-5.24 -2.81,-10.23l0 -6.1c0,-4.99 0.94,-8.41 2.81,-10.25 1.88,-1.83 5.49,-2.75 10.84,-2.75l31.24 0c5.17,0 8.74,0.89 10.7,2.65 1.97,1.78 2.95,4.9 2.95,9.42l0 1.16 -11.3 2.67 0 -6.29z"/>
  <polygon id="12" class="fil1" points="1570.18,568.42 1570.18,543.81 1541.61,513.41 1558.68,513.41 1577.57,534.53 1596.51,513.41 1611.55,513.41 1583.08,543.49 1583.08,568.42 "/>
  <path id="13" class="fil1" d="M1674.11 523l-36.04 0 0 11.83 34.31 0c5.4,0 9.03,0.92 10.93,2.75 1.9,1.85 2.84,5.26 2.84,10.27l0 7.57c0,4.98 -0.94,8.41 -2.84,10.24 -1.9,1.83 -5.53,2.75 -10.93,2.75l-33.99 0c-5.38,0 -9.03,-0.92 -10.91,-2.75 -1.9,-1.83 -2.84,-5.26 -2.84,-10.24l0 -1.51 11.3 -2.35 0 6.5 38.91 0 0 -12.58 -34.33 0c-5.35,0 -8.96,-0.93 -10.84,-2.76 -1.87,-1.83 -2.81,-5.24 -2.81,-10.23l0 -6.1c0,-4.99 0.94,-8.41 2.81,-10.25 1.88,-1.83 5.49,-2.75 10.84,-2.75l31.24 0c5.17,0 8.74,0.89 10.7,2.65 1.97,1.78 2.95,4.9 2.95,9.42l0 1.16 -11.3 2.67 0 -6.29z"/>
  <polygon id="14" class="fil1" points="1738.29,523.21 1738.29,568.42 1725.5,568.42 1725.5,523.21 1700.23,523.21 1700.23,513.41 1763.67,513.41 1763.67,523.21 "/>
  <polygon id="15" class="fil1" points="1779.34,568.42 1779.34,513.41 1835.64,513.41 1835.64,522.79 1792.14,522.79 1792.14,535.05 1817.51,535.05 1817.51,544.43 1792.14,544.43 1792.14,558.08 1836.17,558.08 1836.17,568.42 "/>
  <path id="16" class="fil1" d="M1859.71 568.42l0 -55.01 10.34 0 25.94 33.26 25.32 -33.26 10.25 0 0 55.01 -11.83 0 0 -33.99c0,-0.66 0.04,-1.49 0.12,-2.49 0.09,-1.01 0.21,-2.13 0.34,-3.39 -0.69,1.42 -1.3,2.59 -1.81,3.52 -0.53,0.92 -1,1.67 -1.4,2.26l-20.68 27.49 -2.54 0 -20.74 -27.58c-0.76,-1.05 -1.42,-2.02 -1.95,-2.95 -0.53,-0.93 -0.98,-1.81 -1.33,-2.68 0.11,1.16 0.19,2.19 0.25,3.13 0.05,0.94 0.07,1.83 0.07,2.7l0 33.99 -10.34 0z"/>
  <polygon id="17" class="fil2 str0" points="575.58,568.42 575.58,513.41 588.37,513.41 588.37,568.42 "/>
  <path id="18" class="fil2 str0" d="M616.39 568.42l0 -55.01 8.74 0 38.74 32.43c1.31,1.07 2.47,2.08 3.48,3.04 1.01,0.96 1.92,1.94 2.76,2.95 -0.2,-3.09 -0.34,-5.28 -0.41,-6.56 -0.07,-1.3 -0.11,-2.27 -0.11,-2.97l0 -28.89 11.51 0 0 55.01 -8.74 0 -40.41 -33.99c-0.96,-0.87 -1.81,-1.64 -2.54,-2.35 -0.73,-0.69 -1.4,-1.4 -2.03,-2.13 0.16,1.71 0.3,3.31 0.39,4.82 0.09,1.51 0.12,2.82 0.12,3.93l0 29.73 -11.51 0z"/>
  <polygon id="19" class="fil2 str0" points="709.17,568.42 709.17,513.41 764.82,513.41 764.82,523 721.96,523 721.96,537.5 745.09,537.5 745.09,547.52 721.96,547.52 721.96,568.42 "/>
  <path id="20" class="fil2 str0" d="M779.51 526.4c0,-4.99 0.94,-8.41 2.81,-10.24 1.87,-1.83 5.47,-2.75 10.82,-2.75l40.5 0c5.37,0 8.99,0.92 10.86,2.75 1.89,1.83 2.83,5.24 2.83,10.24l0 29.02c0,5.03 -0.94,8.46 -2.83,10.27 -1.86,1.83 -5.49,2.74 -10.86,2.74l-40.5 0c-5.35,0 -8.96,-0.91 -10.82,-2.74 -1.87,-1.81 -2.81,-5.24 -2.81,-10.27l0 -29.02zm12.79 31.68l42.22 0 0 -34.86 -42.22 0 0 34.86z"/>
  <path id="21" class="fil2 str0" d="M915.64 522.89l-28.77 0 0 15.35 28.77 0c2.22,0 3.73,-0.32 4.55,-0.96 0.82,-0.66 1.23,-1.79 1.23,-3.43l0 -6.63c0,-1.6 -0.41,-2.72 -1.23,-3.38 -0.82,-0.64 -2.33,-0.96 -4.55,-0.96zm-41.35 45.53l0 -55.01 47.02 0c4.39,0 7.57,0.83 9.53,2.52 1.97,1.67 2.95,4.37 2.95,8.12l0 12.94c0,3.72 -0.98,6.41 -2.95,8.1 -1.95,1.69 -5.14,2.54 -9.53,2.54l-7.18 0 25.43 20.79 -18.37 0 -22.18 -20.79 -12.14 0 0 20.79 -12.58 0z"/>
  <path id="22" class="fil2 str0" d="M959.68 568.42l0 -55.01 10.34 0 25.94 33.26 25.32 -33.26 10.25 0 0 55.01 -11.83 0 0 -33.99c0,-0.66 0.04,-1.49 0.12,-2.49 0.09,-1.01 0.21,-2.13 0.34,-3.39 -0.69,1.42 -1.3,2.59 -1.81,3.52 -0.53,0.92 -1,1.67 -1.4,2.26l-20.68 27.49 -2.54 0 -20.74 -27.58c-0.76,-1.05 -1.42,-2.02 -1.95,-2.95 -0.53,-0.93 -0.98,-1.81 -1.33,-2.68 0.11,1.16 0.19,2.19 0.25,3.13 0.05,0.94 0.07,1.83 0.07,2.7l0 33.99 -10.34 0z"/>
  <path id="23" class="fil2 str0" d="M1072.57 546.46l24.13 0 -11.89 -22.39 -12.24 22.39zm-24.63 21.96l31.15 -55.01 12.35 0 31.56 55.01 -14.37 0 -6.61 -12.05 -34.9 0 -6.41 12.05 -12.76 0z"/>
  <polygon id="24" class="fil2 str0" points="1159.05,523.21 1159.05,568.42 1146.26,568.42 1146.26,523.21 1120.99,523.21 1120.99,513.41 1184.42,513.41 1184.42,523.21 "/>
  <polygon id="25" class="fil2 str0" points="1200.1,568.42 1200.1,513.41 1212.89,513.41 1212.89,568.42 "/>
  <path id="26" class="fil2 str0" d="M1239.85 526.4c0,-4.99 0.94,-8.41 2.81,-10.24 1.87,-1.83 5.47,-2.75 10.82,-2.75l40.5 0c5.37,0 8.99,0.92 10.86,2.75 1.89,1.83 2.83,5.24 2.83,10.24l0 29.02c0,5.03 -0.94,8.46 -2.83,10.27 -1.86,1.83 -5.49,2.74 -10.86,2.74l-40.5 0c-5.35,0 -8.96,-0.91 -10.82,-2.74 -1.87,-1.81 -2.81,-5.24 -2.81,-10.27l0 -29.02zm12.79 31.68l42.22 0 0 -34.86 -42.22 0 0 34.86z"/>
  <path id="27" class="fil2 str0" d="M1334.52 568.42l0 -55.01 8.74 0 38.74 32.43c1.31,1.07 2.47,2.08 3.48,3.04 1.01,0.96 1.92,1.94 2.76,2.95 -0.2,-3.09 -0.34,-5.28 -0.41,-6.56 -0.07,-1.3 -0.11,-2.27 -0.11,-2.97l0 -28.89 11.51 0 0 55.01 -8.74 0 -40.41 -33.99c-0.96,-0.87 -1.81,-1.64 -2.54,-2.35 -0.73,-0.69 -1.4,-1.4 -2.03,-2.13 0.16,1.71 0.3,3.31 0.39,4.82 0.09,1.51 0.12,2.82 0.12,3.93l0 29.73 -11.51 0z"/>
  <path id="28" class="fil2 str0" d="M1516.23 523l-36.04 0 0 11.83 34.31 0c5.4,0 9.03,0.92 10.93,2.75 1.9,1.85 2.84,5.26 2.84,10.27l0 7.57c0,4.98 -0.94,8.41 -2.84,10.24 -1.9,1.83 -5.53,2.75 -10.93,2.75l-33.99 0c-5.38,0 -9.03,-0.92 -10.91,-2.75 -1.9,-1.83 -2.84,-5.26 -2.84,-10.24l0 -1.51 11.3 -2.35 0 6.5 38.91 0 0 -12.58 -34.33 0c-5.35,0 -8.96,-0.93 -10.84,-2.76 -1.87,-1.83 -2.81,-5.24 -2.81,-10.23l0 -6.1c0,-4.99 0.94,-8.41 2.81,-10.25 1.88,-1.83 5.49,-2.75 10.84,-2.75l31.24 0c5.17,0 8.74,0.89 10.7,2.65 1.97,1.78 2.95,4.9 2.95,9.42l0 1.16 -11.3 2.67 0 -6.29z"/>
  <polygon id="29" class="fil2 str0" points="1570.18,568.42 1570.18,543.81 1541.61,513.41 1558.68,513.41 1577.57,534.53 1596.51,513.41 1611.55,513.41 1583.08,543.49 1583.08,568.42 "/>
  <path id="30" class="fil2 str0" d="M1674.11 523l-36.04 0 0 11.83 34.31 0c5.4,0 9.03,0.92 10.93,2.75 1.9,1.85 2.84,5.26 2.84,10.27l0 7.57c0,4.98 -0.94,8.41 -2.84,10.24 -1.9,1.83 -5.53,2.75 -10.93,2.75l-33.99 0c-5.38,0 -9.03,-0.92 -10.91,-2.75 -1.9,-1.83 -2.84,-5.26 -2.84,-10.24l0 -1.51 11.3 -2.35 0 6.5 38.91 0 0 -12.58 -34.33 0c-5.35,0 -8.96,-0.93 -10.84,-2.76 -1.87,-1.83 -2.81,-5.24 -2.81,-10.23l0 -6.1c0,-4.99 0.94,-8.41 2.81,-10.25 1.88,-1.83 5.49,-2.75 10.84,-2.75l31.24 0c5.17,0 8.74,0.89 10.7,2.65 1.97,1.78 2.95,4.9 2.95,9.42l0 1.16 -11.3 2.67 0 -6.29z"/>
  <polygon id="31" class="fil2 str0" points="1738.29,523.21 1738.29,568.42 1725.5,568.42 1725.5,523.21 1700.23,523.21 1700.23,513.41 1763.67,513.41 1763.67,523.21 "/>
  <polygon id="32" class="fil2 str0" points="1779.34,568.42 1779.34,513.41 1835.64,513.41 1835.64,522.79 1792.14,522.79 1792.14,535.05 1817.51,535.05 1817.51,544.43 1792.14,544.43 1792.14,558.08 1836.17,558.08 1836.17,568.42 "/>
  <path id="33" class="fil2 str0" d="M1859.71 568.42l0 -55.01 10.34 0 25.94 33.26 25.32 -33.26 10.25 0 0 55.01 -11.83 0 0 -33.99c0,-0.66 0.04,-1.49 0.12,-2.49 0.09,-1.01 0.21,-2.13 0.34,-3.39 -0.69,1.42 -1.3,2.59 -1.81,3.52 -0.53,0.92 -1,1.67 -1.4,2.26l-20.68 27.49 -2.54 0 -20.74 -27.58c-0.76,-1.05 -1.42,-2.02 -1.95,-2.95 -0.53,-0.93 -0.98,-1.81 -1.33,-2.68 0.11,1.16 0.19,2.19 0.25,3.13 0.05,0.94 0.07,1.83 0.07,2.7l0 33.99 -10.34 0z"/>
  <polygon class="fil3 str1" points="580.09,21.08 486.92,293.21 1974.71,293.17 1974.77,329.28 432.86,329.27 500.78,131.37 294.07,381.21 648.08,381.19 306.09,820.69 264.47,820.7 370.9,510.09 29.87,510.09 29.88,473.97 424.89,473.97 340.33,720.69 572.01,423.04 199.94,423.12 538.48,21.12 "/>
  <polygon class="fil4 str2" points="432.86,329.27 1974.77,329.28 1974.71,293.17 486.92,293.21 580.09,21.08 538.48,21.12 199.94,423.12 572.01,423.04 340.33,720.69 424.89,473.97 29.88,473.97 29.87,510.09 370.9,510.09 264.47,820.7 306.09,820.69 648.08,381.19 294.07,381.21 500.78,131.37 "/>
  <polygon class="fil4 str2" points="432.86,329.27 1974.77,329.28 1974.71,293.17 486.92,293.21 580.09,21.08 538.48,21.12 199.94,423.12 572.01,423.04 340.33,720.69 424.89,473.97 29.88,473.97 29.87,510.09 370.9,510.09 264.47,820.7 306.09,820.69 648.08,381.19 294.07,381.21 500.78,131.37 "/>
  <polygon class="fil5 str3" points="424.89,473.97 29.88,473.97 29.87,510.09 370.9,510.09 264.47,820.7 306.09,820.69 648.08,381.19 294.07,381.21 500.78,131.37 432.86,329.27 1974.77,329.28 1974.71,293.17 486.92,293.21 580.09,21.08 538.48,21.12 199.94,423.12 572.01,423.04 340.33,720.69 "/>
 </g>
</svg>
